# xmcd CD database file
#
# Track frame offsets:
#	150
#	22933
#	41730
#	61782
#	77494
#	93218
#	115090
#	131690
#	151385
#	166834
#	183300
#
# Disc length: 2590 seconds
#
# Revision: 0
# Processed by: cddbd v1.5.2PL0 Copyright (c) Steve Scherf et al.
# Submitted via: CDex 1.70beta2
#
DISCID=790a1c0b
DTITLE=Andy Cowan - When The Night Comes In
DYEAR=2009
DGENRE=Blues
TTITLE0=When The Night Comes In
TTITLE1=Cry
TTITLE2=One More Day
TTITLE3=Came So Far For Beauty
TTITLE4=Now's The Time
TTITLE5=Girl In The Garden
TTITLE6=You Don't Know What Love Is
TTITLE7=Hard Times
TTITLE8=Marie
TTITLE9=Drowning In The Water
TTITLE10=Tommy's Boogie
EXTD=YEAR: 2009
EXTT0=
EXTT1=
EXTT2=
EXTT3=
EXTT4=
EXTT5=
EXTT6=
EXTT7=
EXTT8=
EXTT9=
EXTT10=
PLAYORDER=
